<svg width="19" height="12" viewBox="0 0 19 12" fill="none" xmlns="http://www.w3.org/2000/svg">
<path d="M1.432 12C0.568 12 0.136 11.568 0.136 10.704V2.016C0.136 1.152 0.568 0.719999 1.432 0.719999H7.016C7.66667 0.719999 7.992 1.04 7.992 1.68C7.992 2.33067 7.66667 2.656 7.016 2.656H2.504V5.296H6.648C7.30933 5.296 7.64 5.62133 7.64 6.272C7.64 6.92267 7.30933 7.248 6.648 7.248H2.504V10.064H7.016C7.66667 10.064 7.992 10.384 7.992 11.024C7.992 11.6747 7.66667 12 7.016 12H1.432ZM10.5595 12C10.1328 12 9.81283 11.888 9.5995 11.664C9.38617 11.4293 9.2955 11.1307 9.3275 10.768C9.3595 10.4053 9.5195 10.0373 9.8075 9.664L15.0715 2.784H10.3675C9.64217 2.784 9.2795 2.43733 9.2795 1.744C9.2795 1.06133 9.64217 0.719999 10.3675 0.719999H16.7995C17.2262 0.719999 17.5462 0.837333 17.7595 1.072C17.9835 1.296 18.0795 1.58933 18.0475 1.952C18.0155 2.304 17.8502 2.672 17.5515 3.056L12.3035 9.936H17.2475C17.9728 9.936 18.3355 10.2773 18.3355 10.96C18.3355 11.6533 17.9728 12 17.2475 12H10.5595Z" fill="#259956"/>
</svg>
